#N canvas 277 -2037 1666 1263 12;
#X floatatom 694 240 5 0 0 0 - - -;
#X obj 694 271 osc~ 440;
#X obj 694 347 dac~;
#X obj 694 304 *~ 0.2;
#X obj 695 148 metro 1000;
#X obj 695 113 tgl 15 0 empty empty empty 17 7 0 10 -262144 -1 -1 0
1;
#X obj 695 183 bng 15 250 50 0 empty empty empty 17 7 0 10 -262144
-1 -1;
#X obj 783 206 print;
#X obj 694 205 random 1000;
#X floatatom 762 111 5 0 0 0 - - -;
#X msg 56 132 close;
#X obj 56 172 comport 8 115200;
#X text 326 335 decimal;
#X obj 212 360 t a;
#X obj 106 363 list prepend;
#X obj 89 232 t f f;
#X obj 106 412 spigot;
#X obj 70 273 sel 10;
#X obj 144 268 == 10;
#X obj 78 310 t b b;
#X obj 56 201 sel 13;
#X text 122 201 ignore carriage-return characters;
#X text 207 260 detect line-feed characters and trigger output of an
accumulated list of input characters;
#X text 240 361 list accumulator;
#X text 244 473 object from moocow to parse a list of input characters
into a Pd message;
#X text 155 300 two bangs: one to emit complete list \, one to reset
accumulator. Otherwise right outlet of sel just stores character.;
#X text 169 404 enable list to be emitted only when complete;
#X obj 106 479 moocow/bytes2any;
#X obj 543 268;
#X text 39 23 Used Externas cyclone zexy moocow;
#X floatatom 106 590 5 0 0 0 - - -;
#X obj 106 514 unpack;
#X msg 109 132 open 8;
#X msg 170 132 devices;
#X floatatom 156 592 5 0 0 0 - - -;
#X connect 0 0 1 0;
#X connect 1 0 3 0;
#X connect 3 0 2 0;
#X connect 3 0 2 1;
#X connect 4 0 6 0;
#X connect 4 0 7 0;
#X connect 5 0 4 0;
#X connect 6 0 8 0;
#X connect 8 0 0 0;
#X connect 9 0 4 1;
#X connect 10 0 11 0;
#X connect 11 0 20 0;
#X connect 13 0 14 1;
#X connect 14 0 13 0;
#X connect 14 0 16 0;
#X connect 15 0 17 0;
#X connect 15 1 18 0;
#X connect 16 0 27 0;
#X connect 17 0 19 0;
#X connect 17 1 14 0;
#X connect 18 0 16 1;
#X connect 19 0 14 1;
#X connect 19 1 14 0;
#X connect 20 1 15 0;
#X connect 27 0 31 0;
#X connect 30 0 0 0;
#X connect 31 0 30 0;
#X connect 31 1 34 0;
#X connect 32 0 11 0;
#X connect 33 0 11 0;
