#N canvas 240 -2074 1764 1473 12;
#X floatatom 148 103 5 0 0 0 - - -;
#X text 192 103 mode;
#X obj 260 104 random 1000;
#X obj 253 68 metro 100;
#X obj 246 20 tgl 15 0 empty empty empty 17 7 0 10 -262144 -1 -1 1
1;
#X floatatom 260 134 5 0 0 0 - - -;
#X obj 209 263 print;
#X text 306 135 sensor data;
#X obj 140 300 route 1 2 3, f 16;
#X obj 420 107 random 1000;
#X floatatom 420 137 5 0 0 0 - - -;
#X text 466 138 sensor data;
#X obj 597 108 random 1000;
#X floatatom 597 138 5 0 0 0 - - -;
#X text 643 139 sensor data;
#X obj 147 191 pak i i i i;
#X obj 133 365 unpack i i i;
#X floatatom 128 428 5 0 0 0 - - -;
#X floatatom 186 432 5 0 0 0 - - -;
#X floatatom 241 431 5 0 0 0 - - -;
#X obj 341 367 unpack i i i;
#X floatatom 336 430 5 0 0 0 - - -;
#X floatatom 394 434 5 0 0 0 - - -;
#X floatatom 449 433 5 0 0 0 - - -;
#X obj 546 365 unpack i i i;
#X floatatom 541 428 5 0 0 0 - - -;
#X floatatom 599 432 5 0 0 0 - - -;
#X floatatom 654 431 5 0 0 0 - - -;
#X obj 156 530 osc~ 100;
#X obj 176 654 dac~;
#X obj 155 579 *~ 0;
#X obj 386 530 osc~ 100;
#X obj 383 581 *~ 0;
#X obj 331 274 bng 15 250 50 0 empty empty empty 17 7 0 10 -262144
-1 -1;
#X obj 358 278 bng 15 250 50 0 empty empty empty 17 7 0 10 -262144
-1 -1;
#X obj 386 278 bng 15 250 50 0 empty empty empty 17 7 0 10 -262144
-1 -1;
#X msg 462 530 0;
#X msg 249 531 1;
#X msg 292 532 0;
#X msg 507 530 1;
#X msg 86 57 0;
#X msg 130 61 1;
#X msg 178 60 2;
#X obj 331 236 sel 1 2 3 0, f 16;
#X obj 412 278 bng 15 250 50 0 empty empty empty 17 7 0 10 -262144
-1 -1;
#X obj 111 468 * 0.1;
#X connect 0 0 15 0;
#X connect 0 0 43 0;
#X connect 2 0 5 0;
#X connect 3 0 2 0;
#X connect 3 0 9 0;
#X connect 3 0 12 0;
#X connect 4 0 3 0;
#X connect 5 0 15 1;
#X connect 8 0 16 0;
#X connect 8 1 20 0;
#X connect 8 2 24 0;
#X connect 9 0 10 0;
#X connect 10 0 15 2;
#X connect 12 0 13 0;
#X connect 13 0 15 3;
#X connect 15 0 6 0;
#X connect 15 0 8 0;
#X connect 16 0 17 0;
#X connect 16 1 18 0;
#X connect 16 2 19 0;
#X connect 17 0 45 0;
#X connect 20 0 21 0;
#X connect 20 1 22 0;
#X connect 20 2 23 0;
#X connect 21 0 31 0;
#X connect 24 0 25 0;
#X connect 24 1 26 0;
#X connect 24 2 27 0;
#X connect 28 0 30 0;
#X connect 30 0 29 0;
#X connect 30 0 29 1;
#X connect 31 0 32 0;
#X connect 32 0 29 0;
#X connect 32 0 29 1;
#X connect 33 0 37 0;
#X connect 33 0 36 0;
#X connect 34 0 38 0;
#X connect 34 0 39 0;
#X connect 36 0 32 1;
#X connect 37 0 30 1;
#X connect 38 0 30 1;
#X connect 39 0 32 1;
#X connect 40 0 0 0;
#X connect 41 0 0 0;
#X connect 42 0 0 0;
#X connect 43 0 33 0;
#X connect 43 1 34 0;
#X connect 43 2 35 0;
#X connect 43 3 44 0;
#X connect 44 0 38 0;
#X connect 44 0 36 0;
#X connect 45 0 28 0;
