#N canvas 1294 -2259 1973 2063 12;
#X obj 602 724 osc~ 440;
#X obj 379 988 dac~;
#X obj 602 752 *~ 0.2;
#X msg 46 70 close;
#X obj 46 110 comport 8 115200;
#X obj 202 292 t a;
#X obj 96 301 list prepend;
#X obj 79 170 t f f;
#X obj 96 350 spigot;
#X obj 60 211 sel 10;
#X obj 135 217 == 10;
#X obj 68 248 t b b;
#X obj 46 139 sel 13;
#X obj 99 379 moocow/bytes2any;
#X text 40 23 Used Externas cyclone zexy moocow;
#X msg 99 70 open 8;
#X msg 160 70 devices;
#X floatatom 606 451 5 0 0 0 - - -;
#X obj 654 635 scale 390 813 0 0.2;
#X obj 99 426 unpack 0 0 0;
#X obj 621 500 pack 0 40;
#X obj 603 536 line 0.1 1;
#X obj 82 731 osc~ 440;
#X obj 82 755 *~ 0.2;
#X floatatom 83 602 5 0 0 0 - - -;
#X obj 123 642 scale 390 813 0 0.2;
#X obj 86 532 pack 0 40;
#X obj 86 561 line 0.1 1;
#X obj 369 732 osc~ 440;
#X obj 368 758 *~ 0.2;
#X floatatom 344 477 5 0 0 0 - - -;
#X obj 403 632 scale 390 813 0 0.2;
#X obj 343 522 pack 0 40;
#X obj 343 548 line 0.1 1;
#X floatatom 478 192 5 0 0 0 - - -;
#X obj 83 697 scale 390 813 60 1000 1;
#X obj 370 697 scale 390 813 60 1000 1;
#X obj 601 696 scale 390 813 60 1000 1;
#X text 478 138 max freq;
#X obj 661 151 scale 100 500 0 1;
#X floatatom 664 105 5 0 0 0 - - -;
#X floatatom 657 192 5 0 0 0 - - -;
#X floatatom 895 101 5 0 0 0 - - -;
#X floatatom 720 103 5 0 0 0 - - -;
#X floatatom 769 81 5 0 0 0 - - -;
#X floatatom 817 100 5 0 0 0 - - -;
#X text 661 74 input;
#X text 714 74 in_min;
#X text 771 74 in_max;
#X text 832 71 out_min;
#X text 889 71 out_max;
#X floatatom 322 193 5 0 0 0 - - -;
#X text 320 135 min freq;
#X text 682 154 out;
#X obj 326 165 hsl 128 15 0 2000 0 0 empty empty empty -2 -8 0 10 -262144
-1 -1 0 1;
#X obj 480 165 hsl 128 15 0 2000 0 0 empty empty empty -2 -8 0 10 -4032
-1 -1 0 1;
#X obj 751 400 + 1;
#X obj 678 259 hsl 128 15 0 2000 0 0 empty empty empty -2 -8 0 10 -262144
-1 -1 0 1;
#X obj 832 265 hsl 128 15 0 2000 0 0 empty empty empty -2 -8 0 10 -262144
-1 -1 0 1;
#X floatatom 752 430 5 0 0 0 - - -;
#X floatatom 675 302 5 0 0 0 - - -;
#X floatatom 829 307 5 0 0 0 - - -;
#X obj 755 463 hsl 128 15 0 4000 0 0 empty empty empty -2 -8 0 10 -262144
-1 -1 0 1;
#X obj 824 340 trigger b i;
#X text 167 741 sensor value to frequency mapping;
#X connect 0 0 2 0;
#X connect 2 0 1 0;
#X connect 2 0 1 1;
#X connect 3 0 4 0;
#X connect 4 0 12 0;
#X connect 5 0 6 1;
#X connect 6 0 5 0;
#X connect 6 0 8 0;
#X connect 7 0 9 0;
#X connect 7 1 10 0;
#X connect 8 0 13 0;
#X connect 9 0 11 0;
#X connect 9 1 6 0;
#X connect 10 0 8 1;
#X connect 11 0 6 1;
#X connect 11 1 6 0;
#X connect 12 1 7 0;
#X connect 13 0 19 0;
#X connect 15 0 4 0;
#X connect 16 0 4 0;
#X connect 17 0 18 0;
#X connect 17 0 37 0;
#X connect 18 0 2 1;
#X connect 19 0 26 0;
#X connect 19 1 32 0;
#X connect 19 2 20 0;
#X connect 20 0 21 0;
#X connect 21 0 17 0;
#X connect 22 0 23 0;
#X connect 23 0 1 0;
#X connect 23 0 1 1;
#X connect 24 0 25 0;
#X connect 24 0 35 0;
#X connect 25 0 23 1;
#X connect 26 0 27 0;
#X connect 27 0 24 0;
#X connect 28 0 29 0;
#X connect 29 0 1 0;
#X connect 29 0 1 1;
#X connect 30 0 31 0;
#X connect 30 0 36 0;
#X connect 31 0 29 1;
#X connect 32 0 33 0;
#X connect 33 0 30 0;
#X connect 34 0 35 4;
#X connect 34 0 36 4;
#X connect 34 0 37 4;
#X connect 35 0 22 0;
#X connect 36 0 28 0;
#X connect 37 0 0 0;
#X connect 39 0 41 0;
#X connect 40 0 39 0;
#X connect 42 0 39 4;
#X connect 43 0 39 1;
#X connect 44 0 39 2;
#X connect 45 0 39 3;
#X connect 51 0 35 3;
#X connect 51 0 36 3;
#X connect 51 0 37 3;
#X connect 54 0 51 0;
#X connect 55 0 34 0;
#X connect 56 0 59 0;
#X connect 57 0 60 0;
#X connect 58 0 61 0;
#X connect 59 0 62 0;
#X connect 60 0 56 0;
#X connect 61 0 63 0;
#X connect 63 0 56 0;
#X connect 63 1 56 1;
